<svg xmlns="http://www.w3.org/2000/svg" xmlns:xlink="http://www.w3.org/1999/xlink" xmlns:lucid="lucid" width="1400" height="1520"><g transform="translate(-100 240)" lucid:page-tab-id="0_0"><path d="M0-1258.83h1870.87v2581.66H0z" fill="#fff"/><path d="M120-214c0-3.3 2.7-6 6-6h1348c3.3 0 6 2.7 6 6v1468c0 3.3-2.7 6-6 6H126c-3.3 0-6-2.7-6-6z" fill-opacity="0"/><path d="M150.96-220h10m19.96 0h9.98m19.97 0h10m19.96 0h9.98m20 0h9.97m19.97 0h10m19.96 0h9.98m19.97 0h10m19.96 0h10m19.96 0h10m19.96 0h9.98m19.97 0h10m19.96 0h9.98m20 0h9.97m19.97 0h10m19.96 0h9.98m19.97 0h10m19.96 0h10m19.96 0h10m19.96 0h9.98m19.97 0h10m19.96 0H790m20 0h9.97m19.97 0h10m19.96 0h9.98m19.97 0h10m19.96 0h10m19.96 0h10m19.96 0h9.98m19.97 0h10m19.96 0h9.98m20 0h9.97m19.97 0h10m19.96 0h9.98m19.97 0h10m19.96 0h10m19.96 0h10m19.96 0h9.98m19.97 0h10m19.96 0h9.98m20 0h9.97m19.97 0h10m19.96 0h9.98m19.97 0h10m19.96 0h5l3.03.82 2.15 2.15.82 3.03v5m0 19.97v9.98m0 19.98v9.98m0 19.98v10m0 19.96v10m0 19.96v10m0 19.96v10m0 19.96v10m0 19.96v10m0 19.96v10m0 19.96v10m0 19.96v9.98m0 19.98v9.98m0 19.98v9.98m0 19.98v9.98m0 19.97v9.98m0 19.97v10m0 19.96v10m0 19.97v10m0 19.96v10m0 19.96v9.98m0 19.97v10m0 19.96v10m0 19.97v9.98m0 19.98V510m0 20v9.97m0 19.98v9.98m0 19.97v10m0 19.96v10m0 19.96v10m0 19.96v10m0 19.96v10m0 19.96v10m0 19.96v10m0 19.96v10m0 19.96v9.98m0 19.98v9.98m0 19.98v9.98m0 19.98v9.98m0 19.97v10m0 19.97v10m0 19.96v10m0 19.96v9.98m0 19.97v10m0 19.96v10m0 19.97v10m0 19.96v10m0 19.96v9.97m0 19.98v9.98m0 19.98v5l-.82 3.03-2.15 2.15-3.03.82h-5m-19.96 0h-10m-19.96 0h-9.98m-19.97 0h-10m-19.96 0h-9.98m-20 0h-9.97m-19.97 0h-10m-19.96 0h-9.98m-19.97 0h-10m-19.96 0h-10m-19.96 0h-10m-19.96 0h-9.98m-19.97 0h-10m-19.96 0h-9.98m-20 0h-9.97m-19.97 0h-10m-19.96 0h-9.98m-19.97 0h-10m-19.96 0h-10m-19.96 0h-10m-19.96 0h-9.98m-19.97 0h-10m-19.96 0H810m-20 0h-9.97m-19.97 0h-10m-19.96 0h-9.98m-19.97 0h-10m-19.96 0h-10m-19.96 0h-10m-19.96 0h-9.98m-19.97 0h-10m-19.96 0h-9.98m-20 0h-9.97m-19.97 0h-10m-19.96 0h-9.98m-19.97 0h-10m-19.96 0h-10m-19.96 0h-10m-19.96 0h-9.98m-19.97 0h-10m-19.96 0h-9.98m-20 0h-9.97m-19.97 0h-10m-19.96 0h-9.98m-19.97 0h-10m-19.96 0h-5l-3.03-.82-2.15-2.15-.82-3.03v-5m0-19.97v-9.98m0-19.98v-9.98m0-19.98v-10m0-19.96v-10m0-19.96v-10m0-19.96v-10m0-19.96v-10m0-19.96v-10m0-19.96v-10m0-19.96v-10m0-19.96v-9.98m0-19.98v-9.98m0-19.98v-9.98m0-19.98v-9.98m0-19.97v-9.98m0-19.97v-10m0-19.96v-10m0-19.97v-10m0-19.96v-10m0-19.96v-9.98m0-19.97v-10m0-19.96v-10m0-19.97v-9.98m0-19.98V530m0-20v-9.97m0-19.98v-9.98m0-19.97v-10m0-19.96v-10m0-19.96v-10m0-19.96v-10m0-19.96v-10m0-19.96v-10m0-19.96v-10m0-19.96v-10m0-19.96v-9.98m0-19.98v-9.98m0-19.98v-9.98m0-19.98v-9.98m0-19.97v-10m0-19.97v-10m0-19.96v-10m0-19.96v-9.98m0-19.97v-10m0-19.96v-10m0-19.97v-10m0-19.96v-10m0-19.96v-9.97m0-19.98v-9.98m0-19.98v-5l.82-3.03 2.15-2.15L126-220h5" stroke="#5e5e5e" stroke-width="5" fill="none"/><use xlink:href="#a" transform="matrix(1,0,0,1,125,-215) translate(0 65.32299741602067)"/><use xlink:href="#b" transform="matrix(1,0,0,1,125,-215) translate(167.8438128050531 65.32299741602067)"/><path d="M180-94c0-3.3 2.7-6 6-6h841.33c3.32 0 6 2.7 6 6v266.22c0 3.3-2.68 6-6 6H186c-3.3 0-6-2.7-6-6z" fill="#a3d977"/><path d="M237-100h50.98m25.5 0h50.98m25.5 0h51m25.48 0h51m25.5 0h50.98m25.5 0h50.98m25.5 0h51m25.48 0h51m25.5 0h50.98m25.5 0h50.98m25.5 0h25.5l3.02.82 2.15 2.15.83 3.03v22.18m0 22.2v44.36m0 22.18V61.3m0 22.18v44.37m0 22.18v22.2l-.82 3.02-2.14 2.15-3.03.82h-25.5m-25.5 0h-50.98m-25.5 0h-50.98m-25.5 0h-51m-25.48 0h-51m-25.5 0h-51m-25.48 0h-51m-25.5 0h-50.98m-25.5 0h-50.98m-25.5 0h-51m-25.48 0h-51m-25.5 0H186l-3.03-.82-2.15-2.15-.82-3.03v-22.2m0-22.17V83.48m0-22.2V16.93m0-22.18v-44.37m0-22.2V-94l.82-3.03 2.15-2.15L186-100h25.5" stroke="#5e5e5e" stroke-width="5" fill="none"/><use xlink:href="#c" transform="matrix(1,0,0,1,185.00000000000017,-95) translate(0 65.32299741602067)"/><path d="M180 840.02c0-3.32 2.7-6 6-6h841.33c3.32 0 6 2.68 6 6V1194c0 3.3-2.68 6-6 6H186c-3.3 0-6-2.7-6-6z" fill="#a3d977"/><path d="M237 834.02h50.98m25.5 0h50.98m25.5 0h51m25.48 0h51m25.5 0h50.98m25.5 0h50.98m25.5 0h51m25.48 0h51m25.5 0h50.98m25.5 0h50.98m25.5 0h25.5l3.02.82 2.15 2.15.83 3.02v23.6m0 23.6v47.2m0 23.6v47.2m0 23.6v47.2m0 23.58v47.2m0 23.6v23.6l-.82 3.03-2.14 2.15-3.03.82h-25.5m-25.5 0h-50.98m-25.5 0h-50.98m-25.5 0h-51m-25.48 0h-51m-25.5 0h-51m-25.48 0h-51m-25.5 0h-50.98m-25.5 0h-50.98m-25.5 0h-51m-25.48 0h-51m-25.5 0H186l-3.03-.82-2.15-2.15-.82-3.03v-23.6m0-23.6v-47.2m0-23.6v-47.2m0-23.6V958m0-23.6v-47.18m0-23.6v-23.6l.82-3.03 2.15-2.16 3.03-.82h25.5" stroke="#5e5e5e" stroke-width="5" fill="none"/><use xlink:href="#c" transform="matrix(1,0,0,1,184.9999999999998,839.0173977791044) translate(0 353.2398486160206)"/><path d="M1100 243.84c0-3.32 2.7-6 6-6h308c3.3 0 6 2.68 6 6V1194c0 3.3-2.7 6-6 6h-308c-3.3 0-6-2.7-6-6z" fill="#ffc374"/><path d="M1157.33 237.84h51.34m25.66 0h51.34m25.66 0h51.34m25.66 0H1414l3.03.82 2.15 2.15.82 3.04v24.36m0 24.36v48.73m0 24.35v48.73m0 24.36v48.73m0 24.36v48.73m0 24.36v48.73m0 24.36v48.74m0 24.36v48.73m0 24.36v48.72m0 24.36V926m0 24.37v48.72m0 24.36v48.72m0 24.37v48.72m0 24.37V1194l-.82 3.03-2.15 2.15-3.03.82h-25.67m-25.66 0h-51.34m-25.66 0h-51.34m-25.66 0h-51.34m-25.66 0H1106l-3.03-.82-2.15-2.15-.82-3.03v-24.36m0-24.37v-48.72m0-24.37v-48.72m0-24.37v-48.73m0-24.36V877.3m0-24.36V804.2m0-24.37V731.1m0-24.36V658m0-24.35v-48.73m0-24.36v-48.73m0-24.36v-48.73m0-24.36v-48.73m0-24.36v-48.74m0-24.36v-24.36l.82-3.03 2.15-2.14 3.03-.82h25.67" stroke="#5e5e5e" stroke-width="5" fill="none"/><use xlink:href="#d" transform="matrix(1,0,0,1,1105,242.8360800477612) translate(0 948.6079215760208)"/><path d="M1027.33 237.84c3.32 0 6 2.68 6 6V774c0 3.3-2.68 6-6 6H186c-3.3 0-6-2.7-6-6V243.84c0-3.32 2.7-6 6-6z" fill="#99d2f2"/><path d="M1033.33 294.33v50.5m0 25.24v50.5m0 25.23v50.5m0 25.24v50.5m0 25.24v50.5m0 25.24v50.5m0 25.23V774l-.82 3.03-2.14 2.15-3.03.82h-25.5m-25.5 0h-50.98m-25.5 0h-50.98m-25.5 0h-51m-25.48 0h-51m-25.5 0h-51m-25.48 0h-51m-25.5 0h-50.98m-25.5 0h-50.98m-25.5 0h-51M288 780h-51m-25.5 0H186l-3.03-.82-2.15-2.15L180 774v-25.25m0-25.24v-50.48m0-25.25v-50.5m0-25.24v-50.5m0-25.23v-50.5m0-25.24v-50.5m0-25.24v-50.5m0-25.24v-25.24l.82-3.03 2.15-2.14 3.03-.82h25.5m25.5 0h50.98m25.5 0h50.98m25.5 0h51m25.48 0h51m25.5 0h50.98m25.5 0h50.98m25.5 0h51m25.48 0h51m25.5 0h50.98m25.5 0h50.98m25.5 0h25.5l3.02.82 2.15 2.15.83 3.04v25.24" stroke="#5e5e5e" stroke-width="5" fill="none"/><use xlink:href="#e" transform="matrix(6.123233995736766e-17,1,-1,6.123233995736766e-17,1028.333333333334,242.83608004776121) translate(0 843.3288413840207)"/><path d="M260 507.78c0-3.3 2.7-6 6-6h708c3.3 0 6 2.7 6 6v117.7c0 3.3-2.7 6-6 6H266c-3.3 0-6-2.7-6-6z" stroke="#5e5e5e" stroke-width="3" fill="#fff"/><use xlink:href="#f" transform="matrix(1,0,0,1,265,506.7820517253727) translate(241.8981481481482 67.91666666666666)"/><use xlink:href="#g" transform="matrix(1,0,0,1,265,506.7820517253727) translate(400.9722222222222 67.91666666666666)"/><path d="M1196 1111.47c-3.3 0-6-2.68-6-6V286c0-3.3 2.7-6 6-6h158c3.3 0 6 2.7 6 6v819.47c0 3.32-2.7 6-6 6z" stroke="#5e5e5e" stroke-width="3" fill="#fff"/><use xlink:href="#h" transform="matrix(6.123233995736766e-17,-1,1,6.123233995736766e-17,1195,1106.4716095999997) translate(299.19444444444446 86.66666666666666)"/><use xlink:href="#i" transform="matrix(6.123233995736766e-17,-1,1,6.123233995736766e-17,1195,1106.4716095999997) translate(415.67592592592587 86.66666666666666)"/><path d="M616.95 286c0-3.3 2.7-6 6-6h194.67c3.3 0 6 2.7 6 6v108c0 3.3-2.7 6-6 6H622.95c-3.3 0-6-2.7-6-6z" stroke="#5e5e5e" stroke-width="3" fill="#fff"/><use xlink:href="#j" transform="matrix(1,0,0,1,621.9512195121953,284.9999999999998) translate(58.731481481481495 40.41666666666666)"/><use xlink:href="#k" transform="matrix(1,0,0,1,621.9512195121953,284.9999999999998) translate(41.18518518518521 80.41666666666664)"/><path d="M349.72 286c0-3.3 2.68-6 6-6h194.66c3.32 0 6 2.7 6 6v108c0 3.3-2.68 6-6 6H355.72c-3.32 0-6-2.7-6-6z" stroke="#5e5e5e" stroke-width="3" fill="#fff"/><use xlink:href="#l" transform="matrix(1,0,0,1,354.7154471544717,284.9999999999998) translate(50.44444444444447 40.41666666666666)"/><use xlink:href="#k" transform="matrix(1,0,0,1,354.7154471544717,284.9999999999998) translate(41.18518518518521 80.41666666666664)"/><path d="M349.72 18c0-3.3 2.68-6 6-6h461.9c3.3 0 6 2.7 6 6v108c0 3.3-2.7 6-6 6h-461.9c-3.32 0-6-2.7-6-6z" stroke="#5e5e5e" stroke-width="3" fill="#fff"/><use xlink:href="#m" transform="matrix(1,0,0,1,354.7154471544717,16.999999999999773) translate(133.11111111111114 61.04166666666666)"/><use xlink:href="#n" transform="matrix(1,0,0,1,354.7154471544717,16.999999999999773) translate(207.0925925925926 61.04166666666666)"/><path d="M416 1100c-3.3 0-6-2.7-6-6V886c0-3.3 2.7-6 6-6h108c3.3 0 6 2.7 6 6v208c0 3.3-2.7 6-6 6z" stroke="#5e5e5e" stroke-width="3" fill="#fff"/><use xlink:href="#o" transform="matrix(6.123233995736766e-17,-1,1,6.123233995736766e-17,415,1095) translate(65.2314814814815 40.41666666666666)"/><use xlink:href="#p" transform="matrix(6.123233995736766e-17,-1,1,6.123233995736766e-17,415,1095) translate(39.351851851851876 80.41666666666664)"/><path d="M266 1100c-3.3 0-6-2.7-6-6V886c0-3.3 2.7-6 6-6h108c3.3 0 6 2.7 6 6v208c0 3.3-2.7 6-6 6z" stroke="#5e5e5e" stroke-width="3" fill="#fff"/><use xlink:href="#q" transform="matrix(6.123233995736766e-17,-1,1,6.123233995736766e-17,265,1095) translate(60.60185185185187 40.41666666666666)"/><use xlink:href="#r" transform="matrix(6.123233995736766e-17,-1,1,6.123233995736766e-17,265,1095) translate(48.564814814814845 80.41666666666664)"/><path d="M566 1100c-3.3 0-6-2.7-6-6V886c0-3.3 2.7-6 6-6h108c3.3 0 6 2.7 6 6v208c0 3.3-2.7 6-6 6z" stroke="#5e5e5e" stroke-width="3" fill="#fff"/><use xlink:href="#s" transform="matrix(6.123233995736766e-17,-1,1,6.123233995736766e-17,572,1088) translate(66.56481481481482 26.666666666666657)"/><use xlink:href="#t" transform="matrix(6.123233995736766e-17,-1,1,6.123233995736766e-17,572,1088) translate(27.722222222222257 66.66666666666664)"/><path d="M866 1100c-3.3 0-6-2.7-6-6V886c0-3.3 2.7-6 6-6h108c3.3 0 6 2.7 6 6v208c0 3.3-2.7 6-6 6z" stroke="#5e5e5e" stroke-width="3" fill="#fff"/><use xlink:href="#u" transform="matrix(6.123233995736766e-17,-1,1,6.123233995736766e-17,872,1088) translate(52.722222222222236 53.66666666666666)"/><path d="M920 877.5V671.62" stroke="#5e5e5e" stroke-width="2" fill="none"/><path d="M921 878.5h-2v-1.03h2z" fill="#5e5e5e"/><path d="M920 656.35l4.64 14.27h-9.28z" stroke="#5e5e5e" stroke-width="2" fill="#5e5e5e"/><path d="M826.12 340H1120" stroke="#5e5e5e" stroke-width="2" fill="none"/><path d="M826.15 341h-1.03v-2h1.03z" fill="#5e5e5e"/><path d="M1135.26 340l-14.26 4.64v-9.28z" stroke="#5e5e5e" stroke-width="2" fill="#5e5e5e"/><path d="M982.5 566.63H1120" stroke="#5e5e5e" stroke-width="2" fill="none"/><path d="M982.53 567.63h-1.03v-2h1.03z" fill="#5e5e5e"/><path d="M1135.26 566.63l-14.26 4.63V562z" stroke="#5e5e5e" stroke-width="2" fill="#5e5e5e"/><path d="M982.5 990H1120" stroke="#5e5e5e" stroke-width="2" fill="none"/><path d="M982.53 991h-1.03v-2h1.03z" fill="#5e5e5e"/><path d="M1135.26 990l-14.26 4.64v-9.28z" stroke="#5e5e5e" stroke-width="2" fill="#5e5e5e"/><path d="M720.28 134.5V260" stroke="#5e5e5e" stroke-width="2" fill="none"/><path d="M721.28 134.53h-2v-1.03h2z" fill="#5e5e5e"/><path d="M720.28 275.26L715.65 261h9.27z" stroke="#5e5e5e" stroke-width="2" fill="#5e5e5e"/><path d="M453.05 134.5V260" stroke="#5e5e5e" stroke-width="2" fill="none"/><path d="M454.05 134.53h-2v-1.03h2z" fill="#5e5e5e"/><path d="M453.05 275.26L448.4 261h9.28z" stroke="#5e5e5e" stroke-width="2" fill="#5e5e5e"/><path d="M558.88 340h38.07" stroke="#5e5e5e" stroke-width="2" fill="none"/><path d="M558.9 341h-1.02v-2h1.03z" fill="#5e5e5e"/><path d="M612.22 340l-14.27 4.64v-9.28z" stroke="#5e5e5e" stroke-width="2" fill="#5e5e5e"/><path d="M720.28 478.32V420" stroke="#5e5e5e" stroke-width="2" fill="none"/><path d="M721.28 479.32h-2v-1.03h2z" fill="#5e5e5e"/><path d="M720.28 404.74l4.64 14.26h-9.27z" stroke="#5e5e5e" stroke-width="2" fill="#5e5e5e"/><path d="M453.05 478.32V420" stroke="#5e5e5e" stroke-width="2" fill="none"/><path d="M454.05 479.32h-2v-1.03h2z" fill="#5e5e5e"/><path d="M453.05 404.74l4.63 14.26h-9.27z" stroke="#5e5e5e" stroke-width="2" fill="#5e5e5e"/><path d="M716 1100c-3.3 0-6-2.7-6-6V886c0-3.3 2.7-6 6-6h108c3.3 0 6 2.7 6 6v208c0 3.3-2.7 6-6 6z" stroke="#5e5e5e" stroke-width="3" fill="#fff"/><use xlink:href="#v" transform="matrix(6.123233995736766e-17,-1,1,6.123233995736766e-17,722,1088) translate(49.01851851851853 53.66666666666666)"/><path d="M770 877.5V671.62" stroke="#5e5e5e" stroke-width="2" fill="none"/><path d="M771 878.5h-2v-1.03h2z" fill="#5e5e5e"/><path d="M770 656.35l4.64 14.27h-9.28z" stroke="#5e5e5e" stroke-width="2" fill="#5e5e5e"/><path d="M1140 306c0-3.3 2.7-6 6-6h78c3.3 0 6 2.7 6 6v68c0 3.3-2.7 6-6 6h-78c-3.3 0-6-2.7-6-6z" fill="#fff"/><path d="M1156.92 300h9.36m6.24 0h9.36m6.24 0h9.36m6.24 0h9.36m6.24 0h4.68l3.03.82 2.15 2.15.82 3.03v4.08m0 5.44v8.16m0 5.44v8.16m0 5.44v8.16m0 5.44v8.16m0 5.44V374l-.82 3.03-2.15 2.15-3.03.82h-4.68m-6.24 0h-9.36m-6.24 0h-9.36m-6.24 0h-9.36m-6.24 0h-9.36m-6.24 0H1146l-3.03-.82-2.15-2.15-.82-3.03v-4.08m0-5.44v-8.16m0-5.44v-8.16m0-5.44v-8.16m0-5.44v-8.16m0-5.44V306l.82-3.03 2.15-2.15 3.03-.82h4.68" stroke="#5e5e5e" stroke-width="3" fill="none"/><use xlink:href="#w" transform="matrix(1,0,0,1,1145,305) translate(13.361111111111118 40.0625)"/><path d="M1140 532.63c0-3.32 2.7-6 6-6h78c3.3 0 6 2.68 6 6v68c0 3.3-2.7 6-6 6h-78c-3.3 0-6-2.7-6-6z" fill="#fff"/><path d="M1156.92 526.63h9.36m6.24 0h9.36m6.24 0h9.36m6.24 0h9.36m6.24 0h4.68l3.03.82 2.15 2.15.82 3.03v4.08m0 5.45v8.16m0 5.45v8.16m0 5.45v8.16m0 5.45v8.16m0 5.45v4.08l-.82 3.03-2.15 2.15-3.03.83h-4.68m-6.24 0h-9.36m-6.24 0h-9.36m-6.24 0h-9.36m-6.24 0h-9.36m-6.24 0H1146l-3.03-.82-2.15-2.14-.82-3.03v-4.08m0-5.44v-8.15m0-5.44v-8.15m0-5.44v-8.15m0-5.44v-8.15m0-5.44v-4.07l.82-3.03 2.15-2.15 3.03-.82h4.68" stroke="#5e5e5e" stroke-width="3" fill="none"/><use xlink:href="#x" transform="matrix(1,0,0,1,1145,531.6268306626863) translate(12.083333333333336 26.9375)"/><use xlink:href="#y" transform="matrix(1,0,0,1,1145,531.6268306626863) translate(11.111111111111118 50.9375)"/><path d="M1140 966c0-3.3 2.7-6 6-6h88c3.3 0 6 2.7 6 6v48c0 3.3-2.7 6-6 6h-88c-3.3 0-6-2.7-6-6z" fill="#fff"/><path d="M1156.27 960h8.8m5.86 0h8.8m5.87 0h8.8m5.87 0h8.8m5.86 0h8.8m5.87 0h4.4l3.03.82 2.15 2.15.82 3.03v4.8m0 6.4v9.6m0 6.4v9.6m0 6.4v4.8l-.82 3.03-2.15 2.15-3.03.82h-4.4m-5.87 0h-8.8m-5.86 0h-8.8m-5.87 0h-8.8m-5.87 0h-8.8m-5.86 0h-8.8m-5.87 0h-4.4l-3.03-.82-2.15-2.15-.82-3.03v-4.8m0-6.4v-9.6m0-6.4v-9.6m0-6.4V966l.82-3.03 2.15-2.15 3.03-.82h4.4" stroke="#5e5e5e" stroke-width="3" fill="none"/><use xlink:href="#z" transform="matrix(1,0,0,1,1145,965) translate(6.166666666666671 28.5)"/><path d="M720 612.63c0-3.32 2.7-6 6-6h228c3.3 0 6 2.68 6 6v33c0 3.3-2.7 6-6 6H726c-3.3 0-6-2.7-6-6z" fill="#fff"/><path d="M736.64 606.63h9.12m6.08 0h9.12m6.08 0h9.12m6.08 0h9.12m6.08 0h9.12m6.08 0h9.12m6.08 0h9.12m6.08 0h9.12m6.08 0h9.12m6.08 0h9.12m6.08 0h9.12m6.08 0h9.12m6.08 0h9.12m6.08 0h9.12m6.08 0H954l3.03.82 2.15 2.15.82 3.03v4.95m0 6.6v9.9m0 6.6v4.94l-.82 3.02-2.15 2.16-3.03.82h-4.56m-6.08 0h-9.12m-6.08 0h-9.12m-6.08 0h-9.12m-6.08 0h-9.12m-6.08 0h-9.12m-6.08 0h-9.12m-6.08 0h-9.12m-6.08 0h-9.12m-6.08 0h-9.12m-6.08 0h-9.12m-6.08 0h-9.12m-6.08 0h-9.12m-6.08 0h-9.12m-6.08 0h-9.12m-6.08 0H726l-3.03-.82-2.15-2.16-.82-3.02v-4.95m0-6.6v-9.9m0-6.6v-4.94l.82-3.03 2.15-2.15 3.03-.82h4.56" stroke="#5e5e5e" stroke-width="3" fill="none"/><use xlink:href="#A" transform="matrix(1,0,0,1,725,611.6268306626863) translate(39.55555555555557 22.5625)"/><use xlink:href="#B" transform="matrix(1,0,0,1,725,611.6268306626863) translate(122.72222222222223 22.5625)"/><path d="M290 612.63c0-3.32 2.7-6 6-6h358c3.3 0 6 2.68 6 6v33c0 3.3-2.7 6-6 6H296c-3.3 0-6-2.7-6-6z" fill="#fff"/><path d="M306.44 606.63h8.95m5.96 0h8.95m5.97 0h8.95m5.97 0h8.94m5.97 0h8.96m5.96 0h8.95m5.97 0h8.95m5.96 0h8.95m5.97 0h8.95m5.97 0h8.94m5.97 0h8.96m5.96 0h8.95m5.97 0h8.95m5.96 0h8.95m5.97 0h8.95m5.97 0h8.94m5.97 0h8.96m5.96 0h8.95m5.97 0h8.95m5.96 0h8.95m5.97 0h8.95m5.97 0h8.94m5.97 0h8.96m5.96 0H654l3.03.82 2.15 2.15.82 3.03v4.95m0 6.6v9.9m0 6.6v4.94l-.82 3.02-2.15 2.16-3.03.82h-4.47m-5.97 0h-8.95m-5.96 0h-8.95m-5.97 0h-8.95m-5.97 0h-8.94m-5.97 0h-8.96m-5.96 0h-8.95m-5.97 0h-8.95m-5.96 0h-8.95m-5.97 0h-8.95m-5.97 0h-8.94m-5.97 0h-8.96m-5.96 0h-8.95m-5.97 0h-8.95m-5.96 0h-8.95m-5.97 0h-8.95m-5.97 0h-8.94m-5.97 0h-8.96m-5.96 0h-8.95m-5.97 0h-8.95m-5.96 0h-8.95m-5.97 0h-8.95m-5.97 0h-8.94m-5.97 0h-8.96m-5.96 0H296l-3.03-.82-2.15-2.16-.82-3.02v-4.95m0-6.6v-9.9m0-6.6v-4.94l.82-3.03 2.15-2.15 3.03-.82h4.47" stroke="#5e5e5e" stroke-width="3" fill="none"/><use xlink:href="#C" transform="matrix(1,0,0,1,295,611.6268306626863) translate(118.3888888888889 22.5625)"/><use xlink:href="#B" transform="matrix(1,0,0,1,295,611.6268306626863) translate(173.88888888888889 22.5625)"/><path d="M320 877.5V671.62" stroke="#5e5e5e" stroke-width="2" fill="none"/><path d="M321 878.5h-2v-1.03h2z" fill="#5e5e5e"/><path d="M320 656.35l4.64 14.27h-9.28z" stroke="#5e5e5e" stroke-width="2" fill="#5e5e5e"/><path d="M470 877.5V671.62" stroke="#5e5e5e" stroke-width="2" fill="none"/><path d="M471 878.5h-2v-1.03h2z" fill="#5e5e5e"/><path d="M470 656.35l4.64 14.27h-9.28z" stroke="#5e5e5e" stroke-width="2" fill="#5e5e5e"/><path d="M620 877.5V671.62" stroke="#5e5e5e" stroke-width="2" fill="none"/><path d="M621 878.5h-2v-1.03h2z" fill="#5e5e5e"/><path d="M620 656.35l4.64 14.27h-9.28z" stroke="#5e5e5e" stroke-width="2" fill="#5e5e5e"/><path d="M420 486.82c0-3.3 2.7-6 6-6h358c3.3 0 6 2.7 6 6v33c0 3.3-2.7 6-6 6H426c-3.3 0-6-2.7-6-6z" fill="#fff"/><path d="M436.44 480.82h8.95m5.96 0h8.95m5.97 0h8.95m5.97 0h8.94m5.97 0h8.96m5.96 0h8.95m5.97 0h8.95m5.96 0h8.95m5.97 0h8.95m5.97 0h8.94m5.97 0h8.96m5.96 0h8.95m5.97 0h8.95m5.96 0h8.95m5.97 0h8.95m5.97 0h8.94m5.97 0h8.96m5.96 0h8.95m5.97 0h8.95m5.96 0h8.95m5.97 0h8.95m5.97 0h8.94m5.97 0h8.96m5.96 0H784l3.03.82 2.15 2.15.82 3.02v4.95m0 6.6v9.9m0 6.6v4.94l-.82 3.04-2.15 2.15-3.03.8h-4.47m-5.97 0h-8.95m-5.96 0h-8.95m-5.97 0h-8.95m-5.97 0h-8.94m-5.97 0h-8.96m-5.96 0h-8.95m-5.97 0h-8.95m-5.96 0h-8.95m-5.97 0h-8.95m-5.97 0h-8.94m-5.97 0h-8.96m-5.96 0h-8.95m-5.97 0h-8.95m-5.96 0h-8.95m-5.97 0h-8.95m-5.97 0h-8.94m-5.97 0h-8.96m-5.96 0h-8.95m-5.97 0h-8.95m-5.96 0h-8.95m-5.97 0h-8.95m-5.97 0h-8.94m-5.97 0h-8.96m-5.96 0H426l-3.03-.8-2.15-2.16-.82-3.03v-4.94m0-6.6v-9.9m0-6.6v-4.94l.82-3.03 2.15-2.16 3.03-.82h4.47" stroke="#5e5e5e" stroke-width="3" fill="none"/><g><use xlink:href="#D" transform="matrix(1,0,0,1,425,485.81920369854197) translate(129.52777777777777 22.5625)"/></g><defs><path fill="#333" d="M30 0v-248h187v28H63v79h144v27H63v87h162V0H30" id="E"/><path fill="#333" d="M177-190C167-65 218 103 67 71c-23-6-38-20-44-43l32-5c15 47 100 32 89-28v-30C133-14 115 1 83 1 29 1 15-40 15-95c0-56 16-97 71-98 29-1 48 16 59 35 1-10 0-23 2-32h30zM94-22c36 0 50-32 50-73 0-42-14-75-50-75-39 0-46 34-46 75s6 73 46 73" id="F"/><path fill="#333" d="M100-194c62-1 85 37 85 99 1 63-27 99-86 99S16-35 15-95c0-66 28-99 85-99zM99-20c44 1 53-31 53-75 0-43-8-75-51-75s-53 32-53 75 10 74 51 75" id="G"/><g id="a"><use transform="matrix(0.22681596325007175,0,0,0.22681596325007175,0,0)" xlink:href="#E"/><use transform="matrix(0.22681596325007175,0,0,0.22681596325007175,54.43583118001722,0)" xlink:href="#F"/><use transform="matrix(0.22681596325007175,0,0,0.22681596325007175,99.79902383003156,0)" xlink:href="#G"/></g><path fill="#333" d="M137 0h-34L2-248h35l83 218 83-218h36" id="H"/><path fill="#333" d="M100-194c63 0 86 42 84 106H49c0 40 14 67 53 68 26 1 43-12 49-29l28 8c-11 28-37 45-77 45C44 4 14-33 15-96c1-61 26-98 85-98zm52 81c6-60-76-77-97-28-3 7-6 17-6 28h103" id="I"/><path fill="#333" d="M106-169C34-169 62-67 57 0H25v-261h32l-1 103c12-21 28-36 61-36 89 0 53 116 60 194h-32v-121c2-32-8-49-39-48" id="J"/><path fill="#333" d="M24-231v-30h32v30H24zM24 0v-190h32V0H24" id="K"/><path fill="#333" d="M96-169c-40 0-48 33-48 73s9 75 48 75c24 0 41-14 43-38l32 2c-6 37-31 61-74 61-59 0-76-41-82-99-10-93 101-131 147-64 4 7 5 14 7 22l-32 3c-4-21-16-35-41-35" id="L"/><path fill="#333" d="M24 0v-261h32V0H24" id="M"/><g id="b"><use transform="matrix(0.22681596325007175,0,0,0.22681596325007175,0,0)" xlink:href="#H"/><use transform="matrix(0.22681596325007175,0,0,0.22681596325007175,49.89951191501578,0)" xlink:href="#I"/><use transform="matrix(0.22681596325007175,0,0,0.22681596325007175,95.26270456503013,0)" xlink:href="#J"/><use transform="matrix(0.22681596325007175,0,0,0.22681596325007175,140.6258972150445,0)" xlink:href="#K"/><use transform="matrix(0.22681596325007175,0,0,0.22681596325007175,158.54435831180015,0)" xlink:href="#L"/><use transform="matrix(0.22681596325007175,0,0,0.22681596325007175,199.37123169681308,0)" xlink:href="#M"/><use transform="matrix(0.22681596325007175,0,0,0.22681596325007175,217.28969279356875,0)" xlink:href="#I"/></g><path fill="#333" d="M30-248c87 1 191-15 191 75 0 78-77 80-158 76V0H30v-248zm33 125c57 0 124 11 124-50 0-59-68-47-124-48v98" id="N"/><path fill="#333" d="M114-163C36-179 61-72 57 0H25l-1-190h30c1 12-1 29 2 39 6-27 23-49 58-41v29" id="O"/><path fill="#333" d="M115-194c55 1 70 41 70 98S169 2 115 4C84 4 66-9 55-30l1 105H24l-1-265h31l2 30c10-21 28-34 59-34zm-8 174c40 0 45-34 45-75s-6-73-45-74c-42 0-51 32-51 76 0 43 10 73 51 73" id="P"/><path fill="#333" d="M59-47c-2 24 18 29 38 22v24C64 9 27 4 27-40v-127H5v-23h24l9-43h21v43h35v23H59v120" id="Q"/><path fill="#333" d="M117-194c89-4 53 116 60 194h-32v-121c0-31-8-49-39-48C34-167 62-67 57 0H25l-1-190h30c1 10-1 24 2 32 11-22 29-35 61-36" id="R"/><g id="c"><use transform="matrix(0.22681596325007175,0,0,0.22681596325007175,0,0)" xlink:href="#N"/><use transform="matrix(0.22681596325007175,0,0,0.22681596325007175,54.43583118001722,0)" xlink:href="#I"/><use transform="matrix(0.22681596325007175,0,0,0.22681596325007175,99.79902383003156,0)" xlink:href="#O"/><use transform="matrix(0.22681596325007175,0,0,0.22681596325007175,126.79012345679011,0)" xlink:href="#L"/><use transform="matrix(0.22681596325007175,0,0,0.22681596325007175,167.61699684180303,0)" xlink:href="#I"/><use transform="matrix(0.22681596325007175,0,0,0.22681596325007175,212.98018949181738,0)" xlink:href="#P"/><use transform="matrix(0.22681596325007175,0,0,0.22681596325007175,258.34338214183174,0)" xlink:href="#Q"/><use transform="matrix(0.22681596325007175,0,0,0.22681596325007175,281.0249784668389,0)" xlink:href="#K"/><use transform="matrix(0.22681596325007175,0,0,0.22681596325007175,298.94343956359455,0)" xlink:href="#G"/><use transform="matrix(0.22681596325007175,0,0,0.22681596325007175,344.3066322136089,0)" xlink:href="#R"/></g><path fill="#333" d="M205 0l-28-72H64L36 0H1l101-248h38L239 0h-34zm-38-99l-47-123c-12 45-31 82-46 123h93" id="S"/><g id="d"><use transform="matrix(0.22681596325007175,0,0,0.22681596325007175,0,0)" xlink:href="#S"/><use transform="matrix(0.22681596325007175,0,0,0.22681596325007175,54.43583118001722,0)" xlink:href="#L"/><use transform="matrix(0.22681596325007175,0,0,0.22681596325007175,95.26270456503013,0)" xlink:href="#Q"/><use transform="matrix(0.22681596325007175,0,0,0.22681596325007175,117.94430089003731,0)" xlink:href="#K"/><use transform="matrix(0.22681596325007175,0,0,0.22681596325007175,135.86276198679298,0)" xlink:href="#R"/><use transform="matrix(0.22681596325007175,0,0,0.22681596325007175,181.22595463680733,0)" xlink:href="#F"/></g><path fill="#333" d="M141-36C126-15 110 5 73 4 37 3 15-17 15-53c-1-64 63-63 125-63 3-35-9-54-41-54-24 1-41 7-42 31l-33-3c5-37 33-52 76-52 45 0 72 20 72 64v82c-1 20 7 32 28 27v20c-31 9-61-2-59-35zM48-53c0 20 12 33 32 33 41-3 63-29 60-74-43 2-92-5-92 41" id="T"/><g id="e"><use transform="matrix(0.22681596325007175,0,0,0.22681596325007175,0,0)" xlink:href="#N"/><use transform="matrix(0.22681596325007175,0,0,0.22681596325007175,54.43583118001722,0)" xlink:href="#M"/><use transform="matrix(0.22681596325007175,0,0,0.22681596325007175,72.35429227677288,0)" xlink:href="#T"/><use transform="matrix(0.22681596325007175,0,0,0.22681596325007175,117.71748492678721,0)" xlink:href="#R"/><use transform="matrix(0.22681596325007175,0,0,0.22681596325007175,163.08067757680158,0)" xlink:href="#R"/><use transform="matrix(0.22681596325007175,0,0,0.22681596325007175,208.44387022681593,0)" xlink:href="#K"/><use transform="matrix(0.22681596325007175,0,0,0.22681596325007175,226.3623313235716,0)" xlink:href="#R"/><use transform="matrix(0.22681596325007175,0,0,0.22681596325007175,271.72552397358595,0)" xlink:href="#F"/></g><path fill="#333" d="M160-131c35 5 61 23 61 61C221 17 115-2 30 0v-248c76 3 177-17 177 60 0 33-19 50-47 57zm-97-11c50-1 110 9 110-42 0-47-63-36-110-37v79zm0 115c55-2 124 14 124-45 0-56-70-42-124-44v89" id="U"/><path fill="#333" d="M108 0H70L1-190h34L89-25l56-165h34" id="V"/><path fill="#333" d="M84 4C-5 8 30-112 23-190h32v120c0 31 7 50 39 49 72-2 45-101 50-169h31l1 190h-30c-1-10 1-25-2-33-11 22-28 36-60 37" id="W"/><g id="f"><use transform="matrix(0.09259259259259256,0,0,0.09259259259259256,0,0)" xlink:href="#U"/><use transform="matrix(0.09259259259259256,0,0,0.09259259259259256,22.222222222222214,0)" xlink:href="#I"/><use transform="matrix(0.09259259259259256,0,0,0.09259259259259256,40.740740740740726,0)" xlink:href="#J"/><use transform="matrix(0.09259259259259256,0,0,0.09259259259259256,59.25925925925924,0)" xlink:href="#T"/><use transform="matrix(0.09259259259259256,0,0,0.09259259259259256,77.77777777777774,0)" xlink:href="#V"/><use transform="matrix(0.09259259259259256,0,0,0.09259259259259256,94.4444444444444,0)" xlink:href="#K"/><use transform="matrix(0.09259259259259256,0,0,0.09259259259259256,101.7592592592592,0)" xlink:href="#G"/><use transform="matrix(0.09259259259259256,0,0,0.09259259259259256,120.27777777777771,0)" xlink:href="#W"/><use transform="matrix(0.09259259259259256,0,0,0.09259259259259256,138.79629629629622,0)" xlink:href="#O"/></g><path fill="#333" d="M127-220V0H93v-220H8v-28h204v28h-85" id="X"/><g id="g"><use transform="matrix(0.09259259259259256,0,0,0.09259259259259256,0,0)" xlink:href="#X"/><use transform="matrix(0.09259259259259256,0,0,0.09259259259259256,19.07407407407407,0)" xlink:href="#O"/><use transform="matrix(0.09259259259259256,0,0,0.09259259259259256,30.092592592592588,0)" xlink:href="#I"/><use transform="matrix(0.09259259259259256,0,0,0.09259259259259256,48.61111111111111,0)" xlink:href="#I"/></g><g id="h"><use transform="matrix(0.09259259259259256,0,0,0.09259259259259256,0,0)" xlink:href="#H"/><use transform="matrix(0.09259259259259256,0,0,0.09259259259259256,20.370370370370363,0)" xlink:href="#I"/><use transform="matrix(0.09259259259259256,0,0,0.09259259259259256,38.88888888888887,0)" xlink:href="#J"/><use transform="matrix(0.09259259259259256,0,0,0.09259259259259256,57.40740740740739,0)" xlink:href="#K"/><use transform="matrix(0.09259259259259256,0,0,0.09259259259259256,64.7222222222222,0)" xlink:href="#L"/><use transform="matrix(0.09259259259259256,0,0,0.09259259259259256,81.38888888888886,0)" xlink:href="#M"/><use transform="matrix(0.09259259259259256,0,0,0.09259259259259256,88.70370370370367,0)" xlink:href="#I"/></g><path fill="#333" d="M212-179c-10-28-35-45-73-45-59 0-87 40-87 99 0 60 29 101 89 101 43 0 62-24 78-52l27 14C228-24 195 4 139 4 59 4 22-46 18-125c-6-104 99-153 187-111 19 9 31 26 39 46" id="Y"/><g id="i"><use transform="matrix(0.09259259259259256,0,0,0.09259259259259256,0,0)" xlink:href="#Y"/><use transform="matrix(0.09259259259259256,0,0,0.09259259259259256,23.981481481481474,0)" xlink:href="#G"/><use transform="matrix(0.09259259259259256,0,0,0.09259259259259256,42.499999999999986,0)" xlink:href="#R"/><use transform="matrix(0.09259259259259256,0,0,0.09259259259259256,61.0185185185185,0)" xlink:href="#Q"/><use transform="matrix(0.09259259259259256,0,0,0.09259259259259256,70.27777777777776,0)" xlink:href="#O"/><use transform="matrix(0.09259259259259256,0,0,0.09259259259259256,81.29629629629628,0)" xlink:href="#G"/><use transform="matrix(0.09259259259259256,0,0,0.09259259259259256,99.81481481481478,0)" xlink:href="#M"/></g><path fill="#333" d="M30 0v-248h33v221h125V0H30" id="Z"/><g id="j"><use transform="matrix(0.09259259259259256,0,0,0.09259259259259256,0,0)" xlink:href="#Z"/><use transform="matrix(0.09259259259259256,0,0,0.09259259259259256,18.518518518518512,0)" xlink:href="#G"/><use transform="matrix(0.09259259259259256,0,0,0.09259259259259256,37.037037037037024,0)" xlink:href="#L"/><use transform="matrix(0.09259259259259256,0,0,0.09259259259259256,53.70370370370368,0)" xlink:href="#T"/><use transform="matrix(0.09259259259259256,0,0,0.09259259259259256,72.2222222222222,0)" xlink:href="#M"/></g><g id="k"><use transform="matrix(0.09259259259259256,0,0,0.09259259259259256,0,0)" xlink:href="#N"/><use transform="matrix(0.09259259259259256,0,0,0.09259259259259256,22.222222222222214,0)" xlink:href="#M"/><use transform="matrix(0.09259259259259256,0,0,0.09259259259259256,29.537037037037027,0)" xlink:href="#T"/><use transform="matrix(0.09259259259259256,0,0,0.09259259259259256,48.055555555555536,0)" xlink:href="#R"/><use transform="matrix(0.09259259259259256,0,0,0.09259259259259256,66.57407407407405,0)" xlink:href="#R"/><use transform="matrix(0.09259259259259256,0,0,0.09259259259259256,85.09259259259255,0)" xlink:href="#I"/><use transform="matrix(0.09259259259259256,0,0,0.09259259259259256,103.61111111111106,0)" xlink:href="#O"/></g><path fill="#333" d="M143 4C61 4 22-44 18-125c-5-107 100-154 193-111 17 8 29 25 37 43l-32 9c-13-25-37-40-76-40-61 0-88 39-88 99 0 61 29 100 91 101 35 0 62-11 79-27v-45h-74v-28h105v86C228-13 192 4 143 4" id="aa"/><path fill="#333" d="M115-194c53 0 69 39 70 98 0 66-23 100-70 100C84 3 66-7 56-30L54 0H23l1-261h32v101c10-23 28-34 59-34zm-8 174c40 0 45-34 45-75 0-40-5-75-45-74-42 0-51 32-51 76 0 43 10 73 51 73" id="ab"/><g id="l"><use transform="matrix(0.09259259259259256,0,0,0.09259259259259256,0,0)" xlink:href="#aa"/><use transform="matrix(0.09259259259259256,0,0,0.09259259259259256,25.925925925925917,0)" xlink:href="#M"/><use transform="matrix(0.09259259259259256,0,0,0.09259259259259256,33.240740740740726,0)" xlink:href="#G"/><use transform="matrix(0.09259259259259256,0,0,0.09259259259259256,51.75925925925924,0)" xlink:href="#ab"/><use transform="matrix(0.09259259259259256,0,0,0.09259259259259256,70.27777777777774,0)" xlink:href="#T"/><use transform="matrix(0.09259259259259256,0,0,0.09259259259259256,88.79629629629625,0)" xlink:href="#M"/></g><path fill="#333" d="M240 0l2-218c-23 76-54 145-80 218h-23L58-218 59 0H30v-248h44l77 211c21-75 51-140 76-211h43V0h-30" id="ac"/><g id="m"><use transform="matrix(0.09259259259259256,0,0,0.09259259259259256,0,0)" xlink:href="#ac"/><use transform="matrix(0.09259259259259256,0,0,0.09259259259259256,27.685185185185176,0)" xlink:href="#T"/><use transform="matrix(0.09259259259259256,0,0,0.09259259259259256,46.20370370370369,0)" xlink:href="#P"/></g><path fill="#333" d="M85-194c31 0 48 13 60 33l-1-100h32l1 261h-30c-2-10 0-23-3-31C134-8 116 4 85 4 32 4 16-35 15-94c0-66 23-100 70-100zm9 24c-40 0-46 34-46 75 0 40 6 74 45 74 42 0 51-32 51-76 0-42-9-74-50-73" id="ad"/><g id="n"><use transform="matrix(0.09259259259259256,0,0,0.09259259259259256,0,0)" xlink:href="#N"/><use transform="matrix(0.09259259259259256,0,0,0.09259259259259256,22.222222222222214,0)" xlink:href="#O"/><use transform="matrix(0.09259259259259256,0,0,0.09259259259259256,33.24074074074073,0)" xlink:href="#G"/><use transform="matrix(0.09259259259259256,0,0,0.09259259259259256,51.75925925925924,0)" xlink:href="#V"/><use transform="matrix(0.09259259259259256,0,0,0.09259259259259256,68.42592592592591,0)" xlink:href="#K"/><use transform="matrix(0.09259259259259256,0,0,0.09259259259259256,75.74074074074072,0)" xlink:href="#ad"/><use transform="matrix(0.09259259259259256,0,0,0.09259259259259256,94.25925925925924,0)" xlink:href="#I"/><use transform="matrix(0.09259259259259256,0,0,0.09259259259259256,112.77777777777774,0)" xlink:href="#O"/></g><path fill="#333" d="M233-177c-1 41-23 64-60 70L243 0h-38l-65-103H63V0H30v-248c88 3 205-21 203 71zM63-129c60-2 137 13 137-47 0-61-80-42-137-45v92" id="ae"/><g id="o"><use transform="matrix(0.09259259259259256,0,0,0.09259259259259256,0,0)" xlink:href="#ae"/><use transform="matrix(0.09259259259259256,0,0,0.09259259259259256,23.981481481481474,0)" xlink:href="#G"/><use transform="matrix(0.09259259259259256,0,0,0.09259259259259256,42.499999999999986,0)" xlink:href="#T"/><use transform="matrix(0.09259259259259256,0,0,0.09259259259259256,61.0185185185185,0)" xlink:href="#ad"/></g><path fill="#333" d="M63-220v92h138v28H63V0H30v-248h175v28H63" id="af"/><path fill="#333" d="M135-143c-3-34-86-38-87 0 15 53 115 12 119 90S17 21 10-45l28-5c4 36 97 45 98 0-10-56-113-15-118-90-4-57 82-63 122-42 12 7 21 19 24 35" id="ag"/><g id="p"><use transform="matrix(0.09259259259259256,0,0,0.09259259259259256,0,0)" xlink:href="#af"/><use transform="matrix(0.09259259259259256,0,0,0.09259259259259256,20.27777777777777,0)" xlink:href="#I"/><use transform="matrix(0.09259259259259256,0,0,0.09259259259259256,38.79629629629628,0)" xlink:href="#T"/><use transform="matrix(0.09259259259259256,0,0,0.09259259259259256,57.314814814814795,0)" xlink:href="#Q"/><use transform="matrix(0.09259259259259256,0,0,0.09259259259259256,66.57407407407405,0)" xlink:href="#W"/><use transform="matrix(0.09259259259259256,0,0,0.09259259259259256,85.09259259259255,0)" xlink:href="#O"/><use transform="matrix(0.09259259259259256,0,0,0.09259259259259256,96.11111111111107,0)" xlink:href="#I"/><use transform="matrix(0.09259259259259256,0,0,0.09259259259259256,114.62962962962959,0)" xlink:href="#ag"/></g><path fill="#333" d="M185-189c-5-48-123-54-124 2 14 75 158 14 163 119 3 78-121 87-175 55-17-10-28-26-33-46l33-7c5 56 141 63 141-1 0-78-155-14-162-118-5-82 145-84 179-34 5 7 8 16 11 25" id="ah"/><g id="q"><use transform="matrix(0.09259259259259256,0,0,0.09259259259259256,0,0)" xlink:href="#ah"/><use transform="matrix(0.09259259259259256,0,0,0.09259259259259256,22.222222222222214,0)" xlink:href="#Q"/><use transform="matrix(0.09259259259259256,0,0,0.09259259259259256,31.48148148148147,0)" xlink:href="#O"/><use transform="matrix(0.09259259259259256,0,0,0.09259259259259256,42.499999999999986,0)" xlink:href="#I"/><use transform="matrix(0.09259259259259256,0,0,0.09259259259259256,61.0185185185185,0)" xlink:href="#I"/><use transform="matrix(0.09259259259259256,0,0,0.09259259259259256,79.53703703703701,0)" xlink:href="#Q"/></g><path fill="#333" d="M140-251c81 0 123 46 123 126C263-46 219 4 140 4 59 4 17-45 17-125s42-126 123-126zm0 227c63 0 89-41 89-101s-29-99-89-99c-61 0-89 39-89 99S79-25 140-24" id="ai"/><path fill="#333" d="M24-231v-30h32v30H24zM-9 49c24 4 33-6 33-30v-209h32V24c2 40-23 58-65 49V49" id="aj"/><g id="r"><use transform="matrix(0.09259259259259256,0,0,0.09259259259259256,0,0)" xlink:href="#ai"/><use transform="matrix(0.09259259259259256,0,0,0.09259259259259256,25.925925925925917,0)" xlink:href="#ab"/><use transform="matrix(0.09259259259259256,0,0,0.09259259259259256,44.44444444444443,0)" xlink:href="#aj"/><use transform="matrix(0.09259259259259256,0,0,0.09259259259259256,51.75925925925924,0)" xlink:href="#I"/><use transform="matrix(0.09259259259259256,0,0,0.09259259259259256,70.27777777777774,0)" xlink:href="#L"/><use transform="matrix(0.09259259259259256,0,0,0.09259259259259256,86.9444444444444,0)" xlink:href="#Q"/><use transform="matrix(0.09259259259259256,0,0,0.09259259259259256,96.20370370370365,0)" xlink:href="#ag"/></g><g id="s"><use transform="matrix(0.09259259259259256,0,0,0.09259259259259256,0,0)" xlink:href="#Z"/><use transform="matrix(0.09259259259259256,0,0,0.09259259259259256,18.518518518518512,0)" xlink:href="#K"/><use transform="matrix(0.09259259259259256,0,0,0.09259259259259256,25.833333333333325,0)" xlink:href="#R"/><use transform="matrix(0.09259259259259256,0,0,0.09259259259259256,44.35185185185183,0)" xlink:href="#I"/></g><path fill="#333" d="M30-248c118-7 216 8 213 122C240-48 200 0 122 0H30v-248zM63-27c89 8 146-16 146-99s-60-101-146-95v194" id="ak"/><g id="t"><use transform="matrix(0.09259259259259256,0,0,0.09259259259259256,0,0)" xlink:href="#ak"/><use transform="matrix(0.09259259259259256,0,0,0.09259259259259256,23.981481481481474,0)" xlink:href="#I"/><use transform="matrix(0.09259259259259256,0,0,0.09259259259259256,42.499999999999986,0)" xlink:href="#Q"/><use transform="matrix(0.09259259259259256,0,0,0.09259259259259256,51.75925925925924,0)" xlink:href="#I"/><use transform="matrix(0.09259259259259256,0,0,0.09259259259259256,70.27777777777774,0)" xlink:href="#L"/><use transform="matrix(0.09259259259259256,0,0,0.09259259259259256,86.9444444444444,0)" xlink:href="#Q"/><use transform="matrix(0.09259259259259256,0,0,0.09259259259259256,96.20370370370365,0)" xlink:href="#K"/><use transform="matrix(0.09259259259259256,0,0,0.09259259259259256,103.51851851851846,0)" xlink:href="#G"/><use transform="matrix(0.09259259259259256,0,0,0.09259259259259256,122.03703703703697,0)" xlink:href="#R"/></g><g id="u"><use transform="matrix(0.09259259259259256,0,0,0.09259259259259256,0,0)" xlink:href="#ae"/><use transform="matrix(0.09259259259259256,0,0,0.09259259259259256,23.981481481481474,0)" xlink:href="#T"/><use transform="matrix(0.09259259259259256,0,0,0.09259259259259256,42.499999999999986,0)" xlink:href="#ad"/><use transform="matrix(0.09259259259259256,0,0,0.09259259259259256,61.0185185185185,0)" xlink:href="#T"/><use transform="matrix(0.09259259259259256,0,0,0.09259259259259256,79.53703703703701,0)" xlink:href="#O"/></g><path fill="#333" d="M33 0v-248h34V0H33" id="al"/><g id="v"><use transform="matrix(0.09259259259259256,0,0,0.09259259259259256,0,0)" xlink:href="#Z"/><use transform="matrix(0.09259259259259256,0,0,0.09259259259259256,18.518518518518512,0)" xlink:href="#al"/><use transform="matrix(0.09259259259259256,0,0,0.09259259259259256,27.777777777777768,0)" xlink:href="#ak"/><use transform="matrix(0.09259259259259256,0,0,0.09259259259259256,51.75925925925924,0)" xlink:href="#S"/><use transform="matrix(0.09259259259259256,0,0,0.09259259259259256,73.98148148148145,0)" xlink:href="#ae"/></g><path fill="#333" d="M249-183c0 48-29 72-75 77L221 0h-36l-43-103H65L45 0H11l48-248c83 2 190-17 190 65zm-34 3c0-55-74-39-127-41l-18 92c63-1 145 13 145-51" id="am"/><path fill="#333" d="M30-147c31-64 166-65 159 27C183-49 158 1 86 4 9 8 1-88 30-147zM88-20c53 0 68-48 68-100 0-31-11-51-44-50-52 1-68 46-68 97 0 32 13 53 44 53" id="an"/><path fill="#333" d="M67 3c-93-2-31-127-26-193h32L48-50c-3 39 53 32 70 12 30-34 30-101 43-152h32L157 0h-30c1-10 6-24 4-33-14 20-29 37-64 36" id="ao"/><path fill="#333" d="M51-54c-9 22 5 41 31 30L79-1C43 14 10-4 19-52l22-115H19l5-23h22l19-43h21l-9 43h35l-4 23H73" id="ap"/><path fill="#333" d="M111-194c62-3 86 47 72 106H45c-7 38 6 69 45 68 27-1 43-14 53-32l24 11C152-15 129 4 87 4 38 3 12-23 12-71c0-70 32-119 99-123zm44 81c14-66-71-72-95-28-4 8-8 17-11 28h106" id="aq"/><g id="w"><use transform="matrix(0.055555555555555546,0,0,0.055555555555555546,0,0)" xlink:href="#am"/><use transform="matrix(0.055555555555555546,0,0,0.055555555555555546,14.388888888888886,0)" xlink:href="#an"/><use transform="matrix(0.055555555555555546,0,0,0.055555555555555546,25.499999999999993,0)" xlink:href="#ao"/><use transform="matrix(0.055555555555555546,0,0,0.055555555555555546,36.6111111111111,0)" xlink:href="#ap"/><use transform="matrix(0.055555555555555546,0,0,0.055555555555555546,42.16666666666666,0)" xlink:href="#aq"/></g><path fill="#333" d="M151-220L108 0H75l42-220H32l6-28h203l-5 28h-85" id="ar"/><path fill="#333" d="M165-48c-4 18 1 34 23 27l-3 20c-29 8-62 0-52-35h-2C116-14 99 4 63 4 30 4 8-16 8-49c0-68 71-67 138-67 10-26 0-56-31-54-26 1-42 9-47 31l-32-5c8-67 160-71 144 15-5 28-9 54-15 81zM42-50c3 52 80 24 89-6 7-12 7-24 11-38-47 1-103-4-100 44" id="as"/><path fill="#333" d="M66-151c12-25 30-51 66-40l-6 26C45-176 58-65 38 0H6l36-190h30" id="at"/><path fill="#333" d="M103-194c29 0 47 14 56 36 2-11 5-23 8-32h30L160-5C157 61 82 97 21 62 9 55 4 45 1 30l28-7c7 42 83 31 92-3 4-16 9-38 13-55-13 20-29 36-62 36-40 0-60-25-60-64 0-71 23-131 91-131zm4 24c-53 0-58 54-61 104-2 27 10 44 36 44 49 0 65-50 67-102 1-29-15-46-42-46" id="au"/><g id="x"><use transform="matrix(0.055555555555555546,0,0,0.055555555555555546,0,0)" xlink:href="#ar"/><use transform="matrix(0.055555555555555546,0,0,0.055555555555555546,10.333333333333332,0)" xlink:href="#as"/><use transform="matrix(0.055555555555555546,0,0,0.055555555555555546,21.444444444444443,0)" xlink:href="#at"/><use transform="matrix(0.055555555555555546,0,0,0.055555555555555546,28.055555555555554,0)" xlink:href="#au"/><use transform="matrix(0.055555555555555546,0,0,0.055555555555555546,39.166666666666664,0)" xlink:href="#aq"/><use transform="matrix(0.055555555555555546,0,0,0.055555555555555546,50.27777777777777,0)" xlink:href="#ap"/></g><path fill="#333" d="M194-120c59 52 2 134-86 124-53-6-90-18-98-63l31-7c8 30 29 43 70 43 46 0 84-17 71-62-32-43-135-20-137-98-3-89 178-90 191-16l-30 9c-8-48-127-53-127 5 0 53 81 35 115 65" id="av"/><path fill="#333" d="M67-162c32-53 139-36 121 50C175-51 163 2 97 4 68 4 52-11 42-31 38 6 28 39 22 75H-9l50-265h29c-1 10 0 20-3 28zm89 36c0-26-10-43-35-43-54 0-67 50-69 103-1 29 14 45 42 46 53 0 62-58 62-106" id="aw"/><path fill="#333" d="M133-28C103 26-5 8 13-77c13-62 24-115 90-117 29-1 46 15 56 35l19-102h32L160 0h-30zM45-64c-2 27 10 43 35 43 54-1 69-50 69-103 0-29-15-46-42-46-53-1-58 58-62 106" id="ax"/><g id="y"><use transform="matrix(0.055555555555555546,0,0,0.055555555555555546,0,0)" xlink:href="#av"/><use transform="matrix(0.055555555555555546,0,0,0.055555555555555546,13.33333333333333,0)" xlink:href="#aw"/><use transform="matrix(0.055555555555555546,0,0,0.055555555555555546,24.44444444444444,0)" xlink:href="#aq"/><use transform="matrix(0.055555555555555546,0,0,0.055555555555555546,35.55555555555555,0)" xlink:href="#aq"/><use transform="matrix(0.055555555555555546,0,0,0.055555555555555546,46.66666666666666,0)" xlink:href="#ax"/></g><path fill="#333" d="M248-139C247-14 144 9 11 0l48-248c105-6 190 8 189 109zm-34 0c1-70-52-87-126-82L50-27c98 7 163-21 164-112" id="ay"/><path fill="#333" d="M50-231l6-30h32l-6 30H50zM6 0l37-190h31L37 0H6" id="az"/><path fill="#333" d="M55-144c13 50 104 24 104 88C159 21 15 23 1-39l26-10c6 40 102 42 102-4-13-50-104-23-104-87 0-71 143-71 148-8l-29 4c-5-35-85-37-89 0" id="aA"/><path fill="#333" d="M67-158c22-48 132-52 116 29L158 0h-32l25-140c3-38-53-32-70-12C52-117 51-52 38 0H6l36-190h30" id="aB"/><path fill="#333" d="M44-68c0 29 11 47 38 47 30 0 42-19 51-41l28 9C148-21 126 4 82 4 31 4 10-29 12-85c3-77 74-140 146-93 12 8 15 23 18 40l-31 5c-1-22-13-36-36-36-52 0-65 49-65 101" id="aC"/><g id="z"><use transform="matrix(0.055555555555555546,0,0,0.055555555555555546,0,0)" xlink:href="#ay"/><use transform="matrix(0.055555555555555546,0,0,0.055555555555555546,14.388888888888886,0)" xlink:href="#az"/><use transform="matrix(0.055555555555555546,0,0,0.055555555555555546,18.777777777777775,0)" xlink:href="#aA"/><use transform="matrix(0.055555555555555546,0,0,0.055555555555555546,28.77777777777777,0)" xlink:href="#ap"/><use transform="matrix(0.055555555555555546,0,0,0.055555555555555546,34.33333333333333,0)" xlink:href="#as"/><use transform="matrix(0.055555555555555546,0,0,0.055555555555555546,45.444444444444436,0)" xlink:href="#aB"/><use transform="matrix(0.055555555555555546,0,0,0.055555555555555546,56.55555555555554,0)" xlink:href="#aC"/><use transform="matrix(0.055555555555555546,0,0,0.055555555555555546,66.55555555555554,0)" xlink:href="#aq"/></g><path fill="#333" d="M198-190L69 30C53 58 25 83-20 72c4-11-1-27 19-22 33-1 43-29 59-52L20-190h32L79-34l84-156h35" id="aD"/><path fill="#333" d="M248-111c6-24 9-61-24-58-72 9-57 108-77 169h-31l26-142c3-37-50-30-64-10C52-115 50-51 37 0H6l36-190h30c-1 10-6 24-4 32 13-43 101-52 105 5 13-22 29-41 61-41 90 0 28 129 23 194h-31" id="aE"/><g id="A"><use transform="matrix(0.055555555555555546,0,0,0.055555555555555546,0,0)" xlink:href="#ay"/><use transform="matrix(0.055555555555555546,0,0,0.055555555555555546,14.388888888888886,0)" xlink:href="#aD"/><use transform="matrix(0.055555555555555546,0,0,0.055555555555555546,24.388888888888886,0)" xlink:href="#aB"/><use transform="matrix(0.055555555555555546,0,0,0.055555555555555546,35.49999999999999,0)" xlink:href="#as"/><use transform="matrix(0.055555555555555546,0,0,0.055555555555555546,46.6111111111111,0)" xlink:href="#aE"/><use transform="matrix(0.055555555555555546,0,0,0.055555555555555546,63.222222222222214,0)" xlink:href="#az"/><use transform="matrix(0.055555555555555546,0,0,0.055555555555555546,67.6111111111111,0)" xlink:href="#aC"/></g><path fill="#333" d="M20-101c0-91 52-143 145-150 126-9 127 168 53 223-23 17-55 32-93 32C57 4 20-33 20-101zm216-33c5-57-18-91-73-90-77 1-110 51-110 125 0 49 23 75 73 75 72-1 104-45 110-110" id="aF"/><path fill="#333" d="M68-162c25-46 127-43 121 31C183-60 169 1 98 4 69 5 53-11 43-31L36 0H5l52-261h31zm88 36c2-27-9-43-34-43-55 0-70 51-70 103 0 29 15 45 43 46 52 0 58-58 61-106" id="aG"/><path fill="#333" d="M51-231l6-30h31l-6 30H51zM33 24C28 60 2 84-40 72c3-12-1-29 18-22C-5 49-1 37 2 19l41-209h32" id="aH"/><g id="B"><use transform="matrix(0.055555555555555546,0,0,0.055555555555555546,0,0)" xlink:href="#aF"/><use transform="matrix(0.055555555555555546,0,0,0.055555555555555546,15.555555555555554,0)" xlink:href="#aG"/><use transform="matrix(0.055555555555555546,0,0,0.055555555555555546,26.666666666666664,0)" xlink:href="#aH"/><use transform="matrix(0.055555555555555546,0,0,0.055555555555555546,31.055555555555557,0)" xlink:href="#aq"/><use transform="matrix(0.055555555555555546,0,0,0.055555555555555546,42.166666666666664,0)" xlink:href="#aC"/><use transform="matrix(0.055555555555555546,0,0,0.055555555555555546,52.166666666666664,0)" xlink:href="#ap"/><use transform="matrix(0.055555555555555546,0,0,0.055555555555555546,57.72222222222222,0)" xlink:href="#aA"/></g><g id="C"><use transform="matrix(0.055555555555555546,0,0,0.055555555555555546,0,0)" xlink:href="#av"/><use transform="matrix(0.055555555555555546,0,0,0.055555555555555546,13.33333333333333,0)" xlink:href="#ap"/><use transform="matrix(0.055555555555555546,0,0,0.055555555555555546,18.888888888888886,0)" xlink:href="#as"/><use transform="matrix(0.055555555555555546,0,0,0.055555555555555546,29.999999999999993,0)" xlink:href="#ap"/><use transform="matrix(0.055555555555555546,0,0,0.055555555555555546,35.55555555555555,0)" xlink:href="#az"/><use transform="matrix(0.055555555555555546,0,0,0.055555555555555546,39.944444444444436,0)" xlink:href="#aC"/></g><path fill="#333" d="M6 0l50-261h32L37 0H6" id="aI"/><g id="D"><use transform="matrix(0.055555555555555546,0,0,0.055555555555555546,0,0)" xlink:href="#am"/><use transform="matrix(0.055555555555555546,0,0,0.055555555555555546,14.388888888888886,0)" xlink:href="#aq"/><use transform="matrix(0.055555555555555546,0,0,0.055555555555555546,25.499999999999993,0)" xlink:href="#aw"/><use transform="matrix(0.055555555555555546,0,0,0.055555555555555546,36.6111111111111,0)" xlink:href="#aI"/><use transform="matrix(0.055555555555555546,0,0,0.055555555555555546,40.999999999999986,0)" xlink:href="#as"/><use transform="matrix(0.055555555555555546,0,0,0.055555555555555546,52.11111111111109,0)" xlink:href="#aB"/><use transform="matrix(0.055555555555555546,0,0,0.055555555555555546,63.2222222222222,0)" xlink:href="#aB"/><use transform="matrix(0.055555555555555546,0,0,0.055555555555555546,74.33333333333331,0)" xlink:href="#az"/><use transform="matrix(0.055555555555555546,0,0,0.055555555555555546,78.7222222222222,0)" xlink:href="#aB"/><use transform="matrix(0.055555555555555546,0,0,0.055555555555555546,89.83333333333331,0)" xlink:href="#au"/></g></defs></g></svg>